<svg width="32" height="32" viewBox="0 0 32 32" fill="none" xmlns="http://www.w3.org/2000/svg">
  <defs>
    <linearGradient id="gradient" x1="0%" y1="0%" x2="100%" y2="100%">
      <stop offset="0%" style="stop-color:#f97316;stop-opacity:1" />
      <stop offset="100%" style="stop-color:#ea580c;stop-opacity:1" />
    </linearGradient>
  </defs>
  <!-- Background circle -->
  <circle cx="16" cy="16" r="16" fill="url(#gradient)"/>
  <!-- Book icon -->
  <path d="M8 6c0-1.1.9-2 2-2h8c1.1 0 2 .9 2 2v2H8V6z" fill="white" opacity="0.9"/>
  <path d="M8 8h12v16c0 1.1-.9 2-2 2H10c-1.1 0-2-.9-2-2V8z" fill="white"/>
  <path d="M8 8v16l6-2 6 2V8H8z" fill="url(#gradient)" opacity="0.3"/>
  <!-- Heart for stories -->
  <path d="M16 12.5c-1-1.5-3-1.5-4 0s-1 3 4 5c5-2 5-3.5 4-5s-3-1.5-4 0z" fill="#dc2626"/>
  <!-- Sparkle effects -->
  <circle cx="24" cy="8" r="1" fill="white" opacity="0.8"/>
  <circle cx="6" cy="24" r="0.8" fill="white" opacity="0.6"/>
  <circle cx="26" cy="24" r="0.6" fill="white" opacity="0.7"/>
</svg>