<svg width="512" height="512" viewBox="0 0 512 512" fill="none" xmlns="http://www.w3.org/2000/svg">
  <defs>
    <linearGradient id="gradient" x1="0%" y1="0%" x2="100%" y2="100%">
      <stop offset="0%" style="stop-color:#f97316;stop-opacity:1" />
      <stop offset="100%" style="stop-color:#ea580c;stop-opacity:1" />
    </linearGradient>
  </defs>
  <!-- Background circle -->
  <circle cx="256" cy="256" r="256" fill="url(#gradient)"/>
  <!-- Book icon -->
  <path d="M128 96c0-17.6 14.4-32 32-32h128c17.6 0 32 14.4 32 32v32H128V96z" fill="white" opacity="0.9"/>
  <path d="M128 128h192v256c0 17.6-14.4 32-32 32H160c-17.6 0-32-14.4-32-32V128z" fill="white"/>
  <path d="M128 128v256l96-32 96 32V128H128z" fill="url(#gradient)" opacity="0.3"/>
  <!-- Heart for stories -->
  <path d="M256 200c-16-24-48-24-64 0s-16 48 64 80c80-32 80-56 64-80s-48-24-64 0z" fill="#dc2626"/>
  <!-- Sparkle effects -->
  <circle cx="384" cy="128" r="16" fill="white" opacity="0.8"/>
  <circle cx="96" cy="384" r="12.8" fill="white" opacity="0.6"/>
  <circle cx="416" cy="384" r="9.6" fill="white" opacity="0.7"/>
  <circle cx="96" cy="160" r="8" fill="white" opacity="0.5"/>
  <circle cx="416" cy="160" r="6.4" fill="white" opacity="0.6"/>
  <circle cx="64" cy="256" r="4" fill="white" opacity="0.4"/>
  <circle cx="448" cy="256" r="5.2" fill="white" opacity="0.5"/>
</svg>